<svg width="170" height="27" viewBox="0 0 170 27" fill="none" xmlns="http://www.w3.org/2000/svg">
<g id="Frame 6555">
<path id="Vector" fill-rule="evenodd" clip-rule="evenodd" d="M-6.10352e-05 14.067C-6.10352e-05 20.033 4.33294 24.994 9.99994 26V17.333H6.99994V14H9.99994V11.333C9.99994 8.333 11.9329 6.667 14.6669 6.667C15.5329 6.667 16.4669 6.8 17.3329 6.933V10H15.7999C14.3329 10 13.9999 10.733 13.9999 11.667V14H17.1999L16.6669 17.333H13.9999V26C19.6669 24.994 23.9999 20.034 23.9999 14.067C23.9999 7.43 18.5999 2 11.9999 2C5.39994 2 -6.10352e-05 7.43 -6.10352e-05 14.067Z" fill="#96C67F"/>
<path id="Vector_2" fill-rule="evenodd" clip-rule="evenodd" d="M104.126 3.066C105.405 3.012 105.813 3 109.073 3C112.333 3 112.741 3.013 114.019 3.066C115.298 3.119 116.171 3.306 116.934 3.577C117.734 3.854 118.459 4.287 119.059 4.847C119.67 5.396 120.141 6.06 120.443 6.794C120.739 7.494 120.942 8.294 121.001 9.464C121.06 10.639 121.073 11.013 121.073 14C121.073 16.988 121.059 17.362 121.001 18.535C120.943 19.705 120.739 20.505 120.443 21.205C120.141 21.9391 119.669 22.6042 119.059 23.154C118.459 23.714 117.734 24.146 116.934 24.422C116.171 24.694 115.298 24.88 114.021 24.934C112.741 24.988 112.333 25 109.073 25C105.813 25 105.405 24.987 104.126 24.934C102.849 24.881 101.977 24.694 101.213 24.422C100.412 24.146 99.6867 23.7133 99.0869 23.154C98.4764 22.6047 98.004 21.9399 97.7026 21.206C97.4069 20.506 97.204 19.706 97.1451 18.536C97.0862 17.361 97.0731 16.987 97.0731 14C97.0731 11.012 97.0873 10.638 97.1451 9.466C97.2029 8.294 97.4069 7.494 97.7026 6.794C98.0045 6.06008 98.4772 5.39531 99.088 4.846C99.687 4.2865 100.412 3.85344 101.212 3.577C101.976 3.306 102.848 3.12 104.125 3.066H104.126ZM113.922 5.046C112.657 4.993 112.277 4.982 109.073 4.982C105.869 4.982 105.489 4.993 104.224 5.046C103.053 5.095 102.419 5.274 101.995 5.425C101.436 5.625 101.035 5.862 100.615 6.247C100.217 6.60205 99.9108 7.03428 99.7186 7.512C99.5538 7.9 99.3586 8.482 99.3051 9.555C99.2473 10.715 99.2353 11.063 99.2353 14C99.2353 16.937 99.2473 17.285 99.3051 18.445C99.3586 19.518 99.5538 20.1 99.7186 20.488C99.9106 20.965 100.217 21.398 100.615 21.753C101.003 22.118 101.475 22.399 101.995 22.575C102.419 22.726 103.053 22.905 104.224 22.954C105.489 23.007 105.868 23.018 109.073 23.018C112.278 23.018 112.657 23.007 113.922 22.954C115.093 22.905 115.728 22.726 116.151 22.575C116.711 22.375 117.111 22.138 117.531 21.753C117.929 21.398 118.236 20.965 118.428 20.488C118.592 20.1 118.788 19.518 118.841 18.445C118.899 17.285 118.911 16.937 118.911 14C118.911 11.063 118.899 10.715 118.841 9.555C118.788 8.482 118.592 7.9 118.428 7.512C118.209 6.999 117.951 6.632 117.531 6.247C117.144 5.88207 116.672 5.60121 116.151 5.425C115.728 5.274 115.093 5.095 113.922 5.046ZM107.54 17.391C108.396 17.7176 109.35 17.7617 110.237 17.5157C111.125 17.2697 111.891 16.7489 112.407 16.0422C112.922 15.3356 113.153 14.4869 113.062 13.6411C112.97 12.7953 112.561 12.005 111.904 11.405C111.485 11.0215 110.979 10.7278 110.422 10.5451C109.865 10.3625 109.27 10.2954 108.681 10.3486C108.092 10.4019 107.523 10.5742 107.015 10.8531C106.508 11.1321 106.074 11.5107 105.745 11.9619C105.416 12.413 105.201 12.9253 105.114 13.462C105.027 13.9986 105.071 14.5463 105.242 15.0655C105.414 15.5847 105.709 16.0626 106.107 16.4647C106.504 16.8668 106.994 17.1832 107.54 17.391ZM104.712 10.002C105.284 9.47697 105.964 9.0605 106.713 8.77636C107.461 8.49222 108.263 8.34597 109.073 8.34597C109.883 8.34597 110.685 8.49222 111.434 8.77636C112.182 9.0605 112.862 9.47697 113.435 10.002C114.007 10.527 114.462 11.1503 114.772 11.8363C115.082 12.5223 115.241 13.2575 115.241 14C115.241 14.7425 115.082 15.4777 114.772 16.1637C114.462 16.8497 114.007 17.473 113.435 17.998C112.278 19.0583 110.709 19.654 109.073 19.654C107.437 19.654 105.868 19.0583 104.712 17.998C103.555 16.9377 102.905 15.4995 102.905 14C102.905 12.5005 103.555 11.0623 104.712 10.002ZM116.609 9.188C116.751 9.06527 116.865 8.91768 116.943 8.75397C117.022 8.59027 117.064 8.41377 117.067 8.23493C117.07 8.05609 117.033 7.87855 116.96 7.71281C116.886 7.54707 116.778 7.39651 116.64 7.27004C116.502 7.14357 116.337 7.04376 116.157 6.97652C115.976 6.90928 115.782 6.87598 115.587 6.87858C115.392 6.88119 115.199 6.91965 115.021 6.9917C114.842 7.06374 114.681 7.1679 114.547 7.298C114.287 7.55103 114.144 7.88712 114.15 8.23493C114.155 8.58274 114.309 8.91488 114.577 9.16084C114.845 9.40681 115.208 9.54723 115.587 9.5523C115.966 9.55737 116.333 9.42669 116.609 9.188Z" fill="#96C67F"/>
<path id="Vector_3" fill-rule="evenodd" clip-rule="evenodd" d="M154.027 10.969H158.484V12.819C159.126 11.755 160.772 10.799 163.246 10.799C167.987 10.799 169.112 12.917 169.112 16.803V24H164.312V17.688C164.312 15.475 163.67 14.227 162.036 14.227C159.769 14.227 158.827 15.572 158.827 17.687V24H154.027V10.969ZM145.796 23.83H150.596V10.799H145.796V23.83ZM151.284 6.55C151.284 6.88528 151.204 7.21724 151.049 7.52659C150.894 7.83594 150.667 8.11651 150.38 8.352C149.8 8.83262 149.015 9.10165 148.196 9.1C147.38 9.09954 146.596 8.8312 146.015 8.353C145.73 8.11671 145.503 7.83582 145.348 7.52643C145.193 7.21704 145.113 6.88522 145.112 6.55C145.112 5.873 145.436 5.225 146.016 4.747C146.597 4.26816 147.381 3.9997 148.198 4C149.016 4 149.801 4.269 150.38 4.747C150.959 5.225 151.284 5.873 151.284 6.55Z" fill="#96C67F"/>
<path id="Vector_4" d="M62.128 2C55.5012 2 50.128 7.40236 50.128 14.0651C50.128 20.7278 55.5012 26.1302 62.128 26.1302C68.7548 26.1302 74.128 20.7278 74.128 14.0651C74.128 7.40236 68.7548 2 62.128 2ZM67.895 11.0946C67.903 11.2212 67.903 11.3531 67.903 11.4824C67.903 15.4359 64.9083 19.9899 59.436 19.9899C57.7485 19.9899 56.1842 19.4971 54.8664 18.6488C55.1075 18.6757 55.3378 18.6865 55.5842 18.6865C56.9771 18.6865 58.2575 18.2125 59.278 17.4099C57.9708 17.383 56.8726 16.5212 56.4976 15.3362C56.9557 15.4036 57.3682 15.4036 57.8396 15.2824C57.1665 15.1449 56.5616 14.7774 56.1275 14.2423C55.6934 13.7071 55.457 13.0374 55.4583 12.3469V12.3092C55.8521 12.5327 56.3155 12.6701 56.8003 12.6889C56.3927 12.4158 56.0585 12.0458 55.8272 11.6118C55.5959 11.1777 55.4748 10.6929 55.4744 10.2005C55.4744 9.64302 55.6191 9.13403 55.8789 8.69236C56.6259 9.617 57.5582 10.3732 58.615 10.9119C59.6717 11.4506 60.8294 11.7597 62.0128 11.819C61.5923 9.78576 63.103 8.14027 64.9191 8.14027C65.7762 8.14027 66.5476 8.50115 67.0914 9.08286C67.7637 8.95628 68.4066 8.70313 68.9798 8.3638C68.7575 9.05593 68.2914 9.64033 67.6726 10.0093C68.2726 9.94465 68.8512 9.77768 69.3869 9.54338C68.9825 10.1412 68.4762 10.6718 67.895 11.0946Z" fill="#96C67F"/>
</g>
</svg>
